<mxfile host="app.diagrams.net" modified="2024-02-24T08:33:09.966Z" agent="Mozilla/5.0 (Macintosh; Intel Mac OS X 10_15_7) AppleWebKit/537.36 (KHTML, like Gecko) Chrome/121.0.0.0 Safari/537.36" etag="-8U6t1xAS_hEc7jRCdB-" version="23.1.2" type="github">
  <diagram name="第 1 页" id="FvIJBihLKeJStSlgGSO4">
    <mxGraphModel dx="1434" dy="786" grid="1" gridSize="10" guides="1" tooltips="1" connect="1" arrows="1" fold="1" page="1" pageScale="1" pageWidth="827" pageHeight="1169" math="0" shadow="0">
      <root>
        <mxCell id="0" />
        <mxCell id="1" parent="0" />
        <mxCell id="jvqF732JdBD010vLPzsG-1" value="&lt;div style=&quot;font-family: Menlo, Monaco, &amp;quot;Courier New&amp;quot;, monospace; font-size: 12px; line-height: 24px;&quot;&gt;需求评审-初评&lt;/div&gt;" style="rounded=1;whiteSpace=wrap;html=1;labelBackgroundColor=none;fontSize=12;container=0;fillColor=#ffe6cc;strokeColor=#d79b00;sketch=1;curveFitting=1;jiggle=2;fontStyle=1" vertex="1" parent="1">
          <mxGeometry x="120" y="100" width="120" height="30" as="geometry" />
        </mxCell>
        <mxCell id="jvqF732JdBD010vLPzsG-4" value="&lt;div style=&quot;font-family: Menlo, Monaco, &amp;quot;Courier New&amp;quot;, monospace; font-size: 12px; line-height: 24px;&quot;&gt;需求评审-终评&lt;/div&gt;" style="whiteSpace=wrap;html=1;rounded=1;labelBackgroundColor=none;fontSize=12;container=0;fillColor=#ffe6cc;strokeColor=#d79b00;sketch=1;curveFitting=1;jiggle=2;fontStyle=1" vertex="1" parent="1">
          <mxGeometry x="280" y="100" width="120" height="30" as="geometry" />
        </mxCell>
        <mxCell id="jvqF732JdBD010vLPzsG-5" value="" style="edgeStyle=orthogonalEdgeStyle;rounded=0;orthogonalLoop=1;jettySize=auto;html=1;labelBackgroundColor=none;fontColor=default;fontSize=12;fillColor=#ffe6cc;strokeColor=#d79b00;sketch=1;curveFitting=1;jiggle=2;fontStyle=1" edge="1" parent="1" source="jvqF732JdBD010vLPzsG-1" target="jvqF732JdBD010vLPzsG-4">
          <mxGeometry relative="1" as="geometry" />
        </mxCell>
        <mxCell id="jvqF732JdBD010vLPzsG-44" value="" style="edgeStyle=orthogonalEdgeStyle;rounded=0;orthogonalLoop=1;jettySize=auto;html=1;strokeColor=#d79b00;fillColor=#ffe6cc;sketch=1;curveFitting=1;jiggle=2;" edge="1" parent="1" source="jvqF732JdBD010vLPzsG-6" target="jvqF732JdBD010vLPzsG-32">
          <mxGeometry relative="1" as="geometry" />
        </mxCell>
        <mxCell id="jvqF732JdBD010vLPzsG-6" value="&lt;div style=&quot;font-family: Menlo, Monaco, &amp;quot;Courier New&amp;quot;, monospace; font-size: 12px; line-height: 24px;&quot;&gt;设计稿评审&lt;/div&gt;" style="whiteSpace=wrap;html=1;rounded=1;labelBackgroundColor=none;fontSize=12;container=0;fillColor=#ffe6cc;strokeColor=#d79b00;sketch=1;curveFitting=1;jiggle=2;fontStyle=1" vertex="1" parent="1">
          <mxGeometry x="440" y="100" width="120" height="30" as="geometry" />
        </mxCell>
        <mxCell id="jvqF732JdBD010vLPzsG-7" value="" style="edgeStyle=orthogonalEdgeStyle;rounded=0;orthogonalLoop=1;jettySize=auto;html=1;labelBackgroundColor=none;fontColor=default;fontSize=12;fillColor=#ffe6cc;strokeColor=#d79b00;sketch=1;curveFitting=1;jiggle=2;fontStyle=1" edge="1" parent="1" source="jvqF732JdBD010vLPzsG-4" target="jvqF732JdBD010vLPzsG-6">
          <mxGeometry relative="1" as="geometry" />
        </mxCell>
        <mxCell id="jvqF732JdBD010vLPzsG-8" value="&lt;div style=&quot;font-family: Menlo, Monaco, &amp;quot;Courier New&amp;quot;, monospace; font-size: 12px; line-height: 24px;&quot;&gt;需求反讲&lt;/div&gt;" style="whiteSpace=wrap;html=1;rounded=1;labelBackgroundColor=none;fontSize=12;container=0;fillColor=#ffe6cc;strokeColor=#d79b00;sketch=1;curveFitting=1;jiggle=2;fontStyle=1" vertex="1" parent="1">
          <mxGeometry x="120" y="160" width="120" height="30" as="geometry" />
        </mxCell>
        <mxCell id="jvqF732JdBD010vLPzsG-10" value="&lt;div style=&quot;font-family: Menlo, Monaco, &amp;quot;Courier New&amp;quot;, monospace; font-size: 12px; line-height: 24px;&quot;&gt;技术方案&lt;/div&gt;" style="whiteSpace=wrap;html=1;rounded=1;labelBackgroundColor=none;fontSize=12;container=0;fillColor=#ffe6cc;strokeColor=#d79b00;sketch=1;curveFitting=1;jiggle=2;fontStyle=1" vertex="1" parent="1">
          <mxGeometry x="280" y="160" width="120" height="30" as="geometry" />
        </mxCell>
        <mxCell id="jvqF732JdBD010vLPzsG-11" value="" style="edgeStyle=orthogonalEdgeStyle;rounded=0;orthogonalLoop=1;jettySize=auto;html=1;labelBackgroundColor=none;fontColor=default;fontSize=12;fillColor=#ffe6cc;strokeColor=#d79b00;sketch=1;curveFitting=1;jiggle=2;fontStyle=1" edge="1" parent="1" source="jvqF732JdBD010vLPzsG-8" target="jvqF732JdBD010vLPzsG-10">
          <mxGeometry relative="1" as="geometry" />
        </mxCell>
        <mxCell id="jvqF732JdBD010vLPzsG-43" value="" style="edgeStyle=orthogonalEdgeStyle;rounded=0;orthogonalLoop=1;jettySize=auto;html=1;strokeColor=#d79b00;fillColor=#ffe6cc;sketch=1;curveFitting=1;jiggle=2;" edge="1" parent="1" source="jvqF732JdBD010vLPzsG-12" target="jvqF732JdBD010vLPzsG-14">
          <mxGeometry relative="1" as="geometry" />
        </mxCell>
        <mxCell id="jvqF732JdBD010vLPzsG-12" value="&lt;div style=&quot;font-family: Menlo, Monaco, &amp;quot;Courier New&amp;quot;, monospace; font-size: 12px; line-height: 24px;&quot;&gt;任务排期&lt;/div&gt;" style="whiteSpace=wrap;html=1;rounded=1;labelBackgroundColor=none;fontSize=12;container=0;fillColor=#ffe6cc;strokeColor=#d79b00;sketch=1;curveFitting=1;jiggle=2;fontStyle=1" vertex="1" parent="1">
          <mxGeometry x="440" y="160" width="120" height="30" as="geometry" />
        </mxCell>
        <mxCell id="jvqF732JdBD010vLPzsG-13" value="" style="edgeStyle=orthogonalEdgeStyle;rounded=0;orthogonalLoop=1;jettySize=auto;html=1;labelBackgroundColor=none;fontColor=default;fontSize=12;fillColor=#ffe6cc;strokeColor=#d79b00;sketch=1;curveFitting=1;jiggle=2;fontStyle=1" edge="1" parent="1" source="jvqF732JdBD010vLPzsG-10" target="jvqF732JdBD010vLPzsG-12">
          <mxGeometry relative="1" as="geometry" />
        </mxCell>
        <mxCell id="jvqF732JdBD010vLPzsG-14" value="&lt;div style=&quot;font-family: Menlo, Monaco, &amp;quot;Courier New&amp;quot;, monospace; font-size: 12px; line-height: 24px;&quot;&gt;接口评审&lt;/div&gt;" style="whiteSpace=wrap;html=1;rounded=1;labelBackgroundColor=none;fontSize=12;container=0;fillColor=#ffe6cc;strokeColor=#d79b00;sketch=1;curveFitting=1;jiggle=2;fontStyle=1" vertex="1" parent="1">
          <mxGeometry x="600" y="160" width="120" height="30" as="geometry" />
        </mxCell>
        <mxCell id="jvqF732JdBD010vLPzsG-16" value="&lt;div style=&quot;font-family: Menlo, Monaco, &amp;quot;Courier New&amp;quot;, monospace; font-size: 12px; line-height: 24px;&quot;&gt;编码阶段&lt;/div&gt;" style="whiteSpace=wrap;html=1;rounded=1;labelBackgroundColor=none;fontSize=12;container=0;fillColor=#ffe6cc;strokeColor=#d79b00;sketch=1;curveFitting=1;jiggle=2;fontStyle=1" vertex="1" parent="1">
          <mxGeometry x="120" y="220" width="120" height="30" as="geometry" />
        </mxCell>
        <mxCell id="jvqF732JdBD010vLPzsG-41" value="" style="edgeStyle=orthogonalEdgeStyle;rounded=0;orthogonalLoop=1;jettySize=auto;html=1;strokeColor=#d79b00;fillColor=#ffe6cc;sketch=1;curveFitting=1;jiggle=2;" edge="1" parent="1" source="jvqF732JdBD010vLPzsG-18" target="jvqF732JdBD010vLPzsG-20">
          <mxGeometry relative="1" as="geometry" />
        </mxCell>
        <mxCell id="jvqF732JdBD010vLPzsG-18" value="&lt;div style=&quot;font-family: Menlo, Monaco, &amp;quot;Courier New&amp;quot;, monospace; font-size: 12px; line-height: 24px;&quot;&gt;研发自测&lt;/div&gt;" style="whiteSpace=wrap;html=1;rounded=1;labelBackgroundColor=none;fontSize=12;container=0;fillColor=#ffe6cc;strokeColor=#d79b00;sketch=1;curveFitting=1;jiggle=2;fontStyle=1" vertex="1" parent="1">
          <mxGeometry x="280" y="220" width="120" height="30" as="geometry" />
        </mxCell>
        <mxCell id="jvqF732JdBD010vLPzsG-19" value="" style="edgeStyle=orthogonalEdgeStyle;rounded=0;orthogonalLoop=1;jettySize=auto;html=1;labelBackgroundColor=none;fontColor=default;fontSize=12;fillColor=#ffe6cc;strokeColor=#d79b00;sketch=1;curveFitting=1;jiggle=2;fontStyle=1" edge="1" parent="1" source="jvqF732JdBD010vLPzsG-16" target="jvqF732JdBD010vLPzsG-18">
          <mxGeometry relative="1" as="geometry" />
        </mxCell>
        <mxCell id="jvqF732JdBD010vLPzsG-42" value="" style="edgeStyle=orthogonalEdgeStyle;rounded=0;orthogonalLoop=1;jettySize=auto;html=1;strokeColor=#d79b00;fillColor=#ffe6cc;sketch=1;curveFitting=1;jiggle=2;" edge="1" parent="1" source="jvqF732JdBD010vLPzsG-20" target="jvqF732JdBD010vLPzsG-36">
          <mxGeometry relative="1" as="geometry" />
        </mxCell>
        <mxCell id="jvqF732JdBD010vLPzsG-20" value="&lt;div style=&quot;font-family: Menlo, Monaco, &amp;quot;Courier New&amp;quot;, monospace; font-size: 12px; line-height: 24px;&quot;&gt;测试环境部署&lt;/div&gt;" style="whiteSpace=wrap;html=1;rounded=1;labelBackgroundColor=none;fontSize=12;container=0;fillColor=#ffe6cc;strokeColor=#d79b00;sketch=1;curveFitting=1;jiggle=2;fontStyle=1" vertex="1" parent="1">
          <mxGeometry x="440" y="220" width="120" height="30" as="geometry" />
        </mxCell>
        <mxCell id="jvqF732JdBD010vLPzsG-38" value="" style="edgeStyle=orthogonalEdgeStyle;rounded=0;orthogonalLoop=1;jettySize=auto;html=1;strokeColor=#d79b00;fillColor=#ffe6cc;sketch=1;curveFitting=1;jiggle=2;" edge="1" parent="1" source="jvqF732JdBD010vLPzsG-22" target="jvqF732JdBD010vLPzsG-37">
          <mxGeometry relative="1" as="geometry" />
        </mxCell>
        <mxCell id="jvqF732JdBD010vLPzsG-22" value="&lt;div style=&quot;font-family: Menlo, Monaco, &amp;quot;Courier New&amp;quot;, monospace; font-size: 12px; line-height: 24px;&quot;&gt;提测阶段&lt;/div&gt;" style="whiteSpace=wrap;html=1;rounded=1;labelBackgroundColor=none;fontSize=12;container=0;fillColor=#ffe6cc;strokeColor=#d79b00;sketch=1;curveFitting=1;jiggle=2;fontStyle=1" vertex="1" parent="1">
          <mxGeometry x="120" y="280" width="120" height="30" as="geometry" />
        </mxCell>
        <mxCell id="jvqF732JdBD010vLPzsG-24" value="&lt;div style=&quot;font-family: Menlo, Monaco, &amp;quot;Courier New&amp;quot;, monospace; font-size: 12px; line-height: 24px;&quot;&gt;发布&lt;/div&gt;" style="whiteSpace=wrap;html=1;rounded=1;labelBackgroundColor=none;fontSize=12;container=0;fillColor=#ffe6cc;strokeColor=#d79b00;sketch=1;curveFitting=1;jiggle=2;fontStyle=1" vertex="1" parent="1">
          <mxGeometry x="120" y="330" width="120" height="30" as="geometry" />
        </mxCell>
        <mxCell id="jvqF732JdBD010vLPzsG-26" value="&lt;div style=&quot;font-family: Menlo, Monaco, &amp;quot;Courier New&amp;quot;, monospace; font-size: 12px; line-height: 24px;&quot;&gt;测试回归&lt;/div&gt;" style="whiteSpace=wrap;html=1;rounded=1;labelBackgroundColor=none;fontSize=12;container=0;fillColor=#ffe6cc;strokeColor=#d79b00;sketch=1;curveFitting=1;jiggle=2;fontStyle=1" vertex="1" parent="1">
          <mxGeometry x="280" y="330" width="120" height="30" as="geometry" />
        </mxCell>
        <mxCell id="jvqF732JdBD010vLPzsG-27" value="" style="edgeStyle=orthogonalEdgeStyle;rounded=0;orthogonalLoop=1;jettySize=auto;html=1;labelBackgroundColor=none;fontColor=default;fontSize=12;fillColor=#ffe6cc;strokeColor=#d79b00;sketch=1;curveFitting=1;jiggle=2;fontStyle=1" edge="1" parent="1" source="jvqF732JdBD010vLPzsG-24" target="jvqF732JdBD010vLPzsG-26">
          <mxGeometry relative="1" as="geometry" />
        </mxCell>
        <mxCell id="jvqF732JdBD010vLPzsG-28" value="&lt;div style=&quot;font-family: Menlo, Monaco, &amp;quot;Courier New&amp;quot;, monospace; font-size: 12px; line-height: 24px;&quot;&gt;项目复盘&lt;/div&gt;" style="whiteSpace=wrap;html=1;rounded=1;labelBackgroundColor=none;fontSize=12;container=0;fillColor=#ffe6cc;strokeColor=#d79b00;sketch=1;curveFitting=1;jiggle=2;fontStyle=1" vertex="1" parent="1">
          <mxGeometry x="120" y="390" width="120" height="30" as="geometry" />
        </mxCell>
        <mxCell id="jvqF732JdBD010vLPzsG-32" value="&lt;div style=&quot;font-family: Menlo, Monaco, &amp;quot;Courier New&amp;quot;, monospace; font-size: 12px; line-height: 24px;&quot;&gt;交互设计稿评审&lt;/div&gt;" style="whiteSpace=wrap;html=1;rounded=1;labelBackgroundColor=none;fontSize=12;container=0;fillColor=#ffe6cc;strokeColor=#d79b00;sketch=1;curveFitting=1;jiggle=2;fontStyle=1" vertex="1" parent="1">
          <mxGeometry x="600" y="100" width="120" height="30" as="geometry" />
        </mxCell>
        <mxCell id="jvqF732JdBD010vLPzsG-36" value="&lt;div style=&quot;font-family: Menlo, Monaco, &amp;quot;Courier New&amp;quot;, monospace; font-size: 12px; line-height: 24px;&quot;&gt;冒烟测试&lt;/div&gt;" style="whiteSpace=wrap;html=1;rounded=1;labelBackgroundColor=none;fontSize=12;container=0;fillColor=#ffe6cc;strokeColor=#d79b00;sketch=1;curveFitting=1;jiggle=2;fontStyle=1" vertex="1" parent="1">
          <mxGeometry x="600" y="220" width="120" height="30" as="geometry" />
        </mxCell>
        <mxCell id="jvqF732JdBD010vLPzsG-37" value="&lt;div style=&quot;font-family: Menlo, Monaco, &amp;quot;Courier New&amp;quot;, monospace; font-size: 12px; line-height: 24px;&quot;&gt;bugfix&lt;/div&gt;" style="whiteSpace=wrap;html=1;rounded=1;labelBackgroundColor=none;fontSize=12;container=0;fillColor=#ffe6cc;strokeColor=#d79b00;sketch=1;curveFitting=1;jiggle=2;fontStyle=1" vertex="1" parent="1">
          <mxGeometry x="280" y="280" width="120" height="30" as="geometry" />
        </mxCell>
      </root>
    </mxGraphModel>
  </diagram>
</mxfile>
